<svg t="1594185941052" class="icon" viewBox="0 0 1075 1024" version="1.1" xmlns="http://www.w3.org/2000/svg" p-id="4065" width="200" height="200"><path d="M136.704 835.4048c-1.0752 26.88 16.6144 54.0416 49.5616 68.4544 59.3408 25.856 150.2208 6.9632 256.512-68.9408 227.584-162.6368 193.408-139.8784 252.672-155.2128 38.6816-9.984 76.8512-8.8064 118.528 3.8912 62.976 19.2 97.2032 61.0048 105.472 117.3504 5.5808 37.8112 0 74.624-13.4144 122.7008-4.5056 15.4368-21.0432 24.3968-36.9152 19.9936-15.616-4.3008-24.8576-19.9424-20.7872-35.2256 26.1632-93.6192 18.176-147.8912-52.2496-169.3696-31.0528-9.472-57.7024-10.3168-85.248-3.2-47.6928 12.3392-19.712-6.2976-232.6272 145.8432-122.1632 87.296-234.9056 110.7456-316.416 75.1616-73.6256-32.1024-105.1392-108.8512-71.6032-172.7232a102.656 102.656 0 0 1 15.4112-105.6768l202.5984-246.5792a309.0944 309.0944 0 0 0 77.952 122.9824 321.1008 321.1008 0 0 0 125.696 75.4432l-254.1056 196.0192a111.0528 111.0528 0 0 1-121.0112 9.088z m261.9392-684.032L780.8 532.0448c-106.7264 86.0928-263.68 79.6672-362.9056-19.2a269.9264 269.9264 0 0 1-19.2768-361.472z m40.192-40.7808c106.9824-85.4016 263.552-78.6944 362.752 20.096a270.592 270.592 0 0 1 20.1984 361.2672L438.8608 110.592z" p-id="4066"></path></svg>