<svg t="1593089170394" class="icon" viewBox="0 0 1024 1024" version="1.1" xmlns="http://www.w3.org/2000/svg" p-id="5204" width="128" height="128"><path d="M989.866667 918.186667L771.413333 716.8c61.44-75.093333 98.986667-170.666667 98.986667-273.066667C870.4 208.213333 679.253333 17.066667 443.733333 17.066667S17.066667 208.213333 17.066667 443.733333 208.213333 870.4 443.733333 870.4c95.573333 0 180.906667-30.72 252.586667-81.92l225.28 204.8c10.24 10.24 20.48 13.653333 34.133333 13.653333s27.306667-6.826667 37.546667-17.066666c20.48-20.48 17.066667-54.613333-3.413333-71.68zM119.466667 443.733333c0-177.493333 146.773333-324.266667 324.266666-324.266666s324.266667 146.773333 324.266667 324.266666-146.773333 324.266667-324.266667 324.266667-324.266667-146.773333-324.266666-324.266667z" fill="#666666" p-id="5205"></path></svg>