<svg t="1615704602025" class="icon" viewBox="0 0 1024 1024" version="1.1" xmlns="http://www.w3.org/2000/svg" p-id="1709" width="48" height="48"><path d="M482.31 482.08h-304c-44.18 0-80-35.82-80-80v-224c0-44.18 35.82-80 80-80h224c44.18 0 80 35.82 80 80v304zM732 115.61c3.02 0 7.44 0.81 11.31 4.69L901.7 278.69c6.24 6.24 6.24 16.39 0 22.63L743.31 459.71c-3.87 3.87-8.29 4.69-11.31 4.69s-7.44-0.81-11.31-4.69l-158.4-158.4c-6.24-6.24-6.24-16.39 0-22.63l158.39-158.39c3.88-3.87 8.3-4.68 11.32-4.68m0-64c-20.47 0-40.95 7.81-56.57 23.43L517.04 233.43c-31.24 31.24-31.24 81.89 0 113.14l158.39 158.39c15.62 15.62 36.09 23.43 56.57 23.43s40.95-7.81 56.57-23.43l158.39-158.39c31.24-31.24 31.24-81.89 0-113.14L788.57 75.04c-15.62-15.62-36.1-23.43-56.57-23.43zM402.31 927.62h-224c-44.18 0-80-35.82-80-80v-224c0-44.18 35.82-80 80-80h304v304c0 44.18-35.82 80-80 80zM844 928H620c-44.18 0-80-35.82-80-80V544h304c44.18 0 80 35.82 80 80v224c0 44.18-35.82 80-80 80z" p-id="1710"></path></svg>