<svg t="1616922429744" class="icon" viewBox="0 0 1024 1024" version="1.1" xmlns="http://www.w3.org/2000/svg" p-id="3774" width="48" height="48"><path d="M102.4 972.8v-295.8336a51.2 51.2 0 0 1 51.2-51.2h716.8a51.2 51.2 0 0 1 51.2 51.2V972.8a51.2 51.2 0 0 1-51.2 51.2H153.6a51.2 51.2 0 0 1-51.2-51.2z m689.6128-233.2672H235.2128c-1.3312 0-2.4064-1.1264-2.4064-2.56V385.8944c0-0.8192 0.4096-1.6384 1.0752-2.0992l285.7472-136.8064 273.664 136.8064c0.6656 0.4608 1.1264 1.28 1.1264 2.048v351.232c-0.1536 1.3312-1.1264 2.4576-2.4064 2.4576z m-276.3264-119.4496c47.5648 0 86.0672-38.1952 86.0672-85.3504 0-47.104-38.5024-85.2992-86.0672-85.2992s-86.1184 38.1952-86.1184 85.2992c0 47.104 38.5536 85.3504 86.1184 85.3504z m-26.3168-398.2336c-1.3312 0-2.4064-1.1776-2.4064-2.6624V76.8a25.6 25.6 0 0 1 25.6-25.6h178.432a25.6 25.6 0 0 1 25.6 25.6v119.4496a25.6 25.6 0 0 1-25.6 25.6H489.3696zM512.5632 51.2h31.7952v284.4672h-57.344V76.8a25.6 25.6 0 0 1 25.6-25.6z" fill="#646A73" p-id="3775"></path></svg>