<svg t="1593348758841" class="icon" viewBox="0 0 1024 1024" version="1.1" xmlns="http://www.w3.org/2000/svg" p-id="4076" width="128" height="128"><path d="M405.333333 270.933333l366.933334-91.733333c14.933333-6.4 27.733333-6.4 36.266666 0s12.8 14.933333 12.8 27.733333v473.6c0 21.333333-8.533333 38.4-23.466666 53.333334-14.933333 14.933333-36.266667 27.733333-64 36.266666-29.866667 8.533333-57.6 10.666667-83.2 2.133334-25.6-8.533333-42.666667-21.333333-49.066667-42.666667-6.4-21.333333-2.133333-42.666667 14.933333-64 17.066667-21.333333 40.533333-36.266667 70.4-46.933333 27.733333-8.533333 53.333333-10.666667 78.933334-4.266667v-296.533333l-341.333334 87.466666v345.6c0 14.933333-8.533333 32-25.6 51.2-17.066667 19.2-38.4 32-61.866666 38.4-29.866667 10.666667-57.6 10.666667-83.2 2.133334-25.6-8.533333-42.666667-21.333333-49.066667-42.666667-6.4-21.333333-2.133333-42.666667 14.933333-64 17.066667-21.333333 40.533333-36.266667 70.4-46.933333 27.733333-8.533333 53.333333-10.666667 78.933334-4.266667v-362.666667c0-14.933333 2.133333-25.6 8.533333-34.133333 4.266667-6.4 12.8-12.8 27.733333-17.066667z" p-id="4077"></path></svg>