<svg t="1593067562603" class="icon" viewBox="0 0 1024 1024" version="1.1" xmlns="http://www.w3.org/2000/svg" p-id="8445" width="200" height="200"><path d="M716.8 50.688H102.4c-56.32 0-102.4 46.08-102.4 102.4v443.904c0 56.32 46.08 102.4 102.4 102.4l0.512 171.008c0 14.336 9.216 27.136 22.528 32.256 3.584 1.536 7.68 2.048 11.776 2.048 9.728 0 19.456-4.608 26.112-12.288l177.664-193.024H716.8c56.32 0 102.4-46.08 102.4-102.4V153.088c0-56.32-46.08-102.4-102.4-102.4z m-71.68 360.96c-43.008 73.216-149.504 118.784-233.984 118.784-84.992 0-192-45.568-234.496-119.296-9.216-16.384-4.096-37.376 12.288-46.592 16.384-9.728 37.376-4.096 46.592 12.288 30.72 52.736 114.688 85.504 175.616 85.504 60.416 0 144.384-32.256 175.104-84.992 9.728-16.384 30.208-22.016 46.592-12.288 16.384 9.216 22.016 30.208 12.288 46.592z" p-id="8446"></path><path d="M886.784 973.312c-8.704 0-17.92-3.584-24.064-10.24L737.28 836.096h-157.184a34.304 34.304 0 0 1 0-68.608h170.496c9.216 0 18.432 3.584 24.576 10.24l77.312 78.336v-53.248-4.096c1.536-17.92 16.384-31.232 33.792-31.232h34.304c18.944 0 33.792-14.848 33.792-33.792V358.4c0-18.944-15.36-34.816-33.792-34.816h1.024a34.304 34.304 0 0 1 0-68.608h0.512c56.32 0 101.888 46.08 101.888 102.912v375.296c0 56.32-45.568 101.888-101.888 101.888h-0.512l-0.512 102.912c0 13.824-8.192 26.112-20.992 31.744-4.608 2.56-8.704 3.584-13.312 3.584z" p-id="8447"></path></svg>