<svg t="1593348834154" class="icon" viewBox="0 0 1123 1024" version="1.1" xmlns="http://www.w3.org/2000/svg" p-id="8004" width="128" height="128"><path d="M1093.975284 274.139429c-236.007619-59.782095-158.622476-117.613714-257.462857-205.531429-140.239238-124.635429-209.822476 86.79619-209.822477 86.79619l-140.531809 466.505143a263.070476 263.070476 0 0 0-96.548571-106.154666C268.53376 440.07619 110.83776 474.112 37.304808 591.823238c-73.532952 117.662476-35.011048 274.285714 86.113523 349.964191 121.07581 75.678476 278.77181 41.642667 352.304762-76.068572 1.950476-3.023238 3.754667-6.095238 5.510096-9.264762a14.628571 14.628571 0 0 0 2.584381-2.438095c31.110095-34.425905 232.106667-592.554667 232.106666-592.554667s74.99581 129.80419 192.121905 125.708191c134.729143-4.681143 193.584762-110.982095 185.880381-113.030095z" p-id="8005"></path></svg>