<svg t="1593155025745" class="icon" viewBox="0 0 1024 1024" version="1.1" xmlns="http://www.w3.org/2000/svg" p-id="7775" width="128" height="128"><path d="M547.978378 84.410811l114.854054 232.475675c5.535135 11.07027 16.605405 19.372973 30.443244 22.140541l256 37.362162c31.827027 4.151351 45.664865 44.281081 22.14054 67.805406l-186.810811 179.891891c-9.686486 9.686486-13.837838 22.140541-11.07027 34.594595L816.432432 914.681081c5.535135 31.827027-29.059459 56.735135-58.118918 41.513514l-229.708109-120.38919c-11.07027-5.535135-24.908108-5.535135-37.362162 0l-229.708108 120.38919c-29.059459 15.221622-63.654054-9.686486-58.118919-41.513514l44.281081-254.616216c2.767568-12.454054-1.383784-26.291892-11.07027-34.594595L53.967568 444.194595c-23.524324-23.524324-11.07027-62.27027 22.14054-67.805406L332.108108 339.027027c12.454054-1.383784 23.524324-9.686486 30.443243-22.140541l114.854054-232.475675c13.837838-29.059459 55.351351-29.059459 70.572973 0z m0 0" fill="#FCC43C" p-id="7776"></path></svg>