<svg t="1615815975938" class="icon" viewBox="0 0 8261 1024" version="1.1" xmlns="http://www.w3.org/2000/svg" p-id="1519" width="48" height="48"><path d="M2429.90873 501.990977c0-10.778947-4.619549-20.018045-12.318797-27.717293l-3.079699-3.079699-454.255639-437.317293c-16.938346-16.938346-50.815038-30.796992-75.452632-30.796993h-197.100752c-24.637594 0-29.257143 13.858647-12.318797 30.796993l346.466166 334.147368 138.586466 133.966917-30.796992 29.257143L1675.382414 970.105263c-16.938346 16.938346-12.318797 30.796992 12.318797 30.796993h197.100752c24.637594 0 58.514286-13.858647 75.452632-30.796993l454.255639-437.317293 3.079699-3.079699c6.159398-7.699248 12.318797-16.938346 12.318797-27.717294z" fill="#F8B500" p-id="1520"></path><path d="M1461.343317 4.619549h-141.666166c-24.637594 0-43.115789 20.018045-43.115789 43.115789v908.511279c0 24.637594 20.018045 43.115789 43.115789 43.115789h141.666166c24.637594 0 43.115789-20.018045 43.115789-43.115789v-908.511279c0-24.637594-20.018045-43.115789-43.115789-43.115789zM4052.910234 3.079699l-153.984962-1.539849c-24.637594 0-43.115789 20.018045-43.11579 43.115789V615.93985c0 263.314286-592.842105 266.393985-592.842105-6.159399V49.275188c0-3.079699 0-4.619549-1.53985-7.699248-3.079699-21.557895-21.557895-36.956391-43.115789-36.956391h-149.365414c-24.637594 0-43.115789 20.018045-43.115789 43.115789v634.418045c0 30.796992 3.079699 60.054135 10.778947 86.231579 87.771429 348.006015 956.246617 335.687218 1045.557895-9.239097 9.239098-36.956391 13.858647-56.974436 13.858646-95.470677v-615.93985c0-24.637594-18.478195-44.655639-43.115789-44.655639zM2874.925272 4.619549h-197.100752c-24.637594 0-58.514286 13.858647-75.452632 30.796992L2349.83655 277.172932l141.666165 137.046617 395.741354-380.342857c18.478195-16.938346 12.318797-29.257143-12.318797-29.257143zM2493.042565 588.222556l-141.666166 137.046617L2602.371888 970.105263c16.938346 16.938346 50.815038 30.796992 75.452632 30.796993h197.100752c24.637594 0 29.257143-13.858647 12.318797-30.796993l-394.201504-381.882707zM6770.74482 625.178947h-140.126315c24.637594 106.249624 44.655639 187.861654 72.372932 294.111279 16.938346 66.213534 29.257143 75.452632 93.930827 75.452631h100.090226l-78.532331-331.067669c-4.619549-21.557895-24.637594-38.496241-47.735339-38.496241zM5788.32076 649.816541h-4.619549c-13.858647 0-53.894737 7.699248-58.514285 61.593985l-13.858647 141.666166-4.619549 50.815037-4.619549 47.735339-4.619549 44.655639h107.789474c38.496241 0 64.673684-15.398496 69.293233-60.054136l27.717293-284.87218h-113.948872v-1.53985zM6425.818505 625.178947H6282.61249l47.735338 175.542858c12.318797 46.195489 32.336842 46.195489 76.992481 46.195488h118.568421v-3.079699L6472.013993 662.135338c-6.159398-21.557895-24.637594-36.956391-46.195488-36.956391zM5780.621512 501.990977l1.53985 1.53985 3.079699 3.079699 3.079699 3.0797 1.53985 1.539849 4.619549 4.619549c3.079699 3.079699 7.699248 6.159398 12.318797 7.699248 1.53985 1.53985 3.079699 1.53985 6.159398 3.079699l3.0797 1.53985 3.079699 1.53985c7.699248 3.079699 15.398496 3.079699 23.097744 3.079699H6565.94482c10.778947 0 20.018045-9.239098 20.018046-20.018045v-41.57594c0-10.778947-9.239098-20.018045-20.018046-20.018045h-169.383458V323.368421h247.915789v209.419549H6766.125272c20.018045-1.53985 36.956391-12.318797 49.275188-26.177444 10.778947-12.318797 16.938346-29.257143 16.938345-46.195488V76.992481v-7.699248c0-1.53985 0-4.619549-1.539849-6.159398V61.593985c0-1.53985 0-3.079699-1.53985-4.619549l-1.539849-3.079699v-1.53985c-10.778947-29.257143-36.956391-49.275188-69.293234-49.275188H5839.135798c-9.239098 0-18.478195 1.53985-27.717293 6.159399-21.557895 9.239098-38.496241 29.257143-43.11579 52.354887 0 1.53985 0 4.619549-1.539849 6.159398V465.034586c1.53985 13.858647 6.159398 26.177444 13.858646 36.956391z m615.93985-408.06015h247.915789v127.807519h-247.915789V93.930827z m-441.936842 7.699248v-7.699248h252.535338v127.807519h-252.535338V101.630075z m0 220.198496h252.535338v127.807519h-252.535338v-127.807519z" fill="#00A9F0" p-id="1521"></path><path d="M6641.397452 922.369925c-3.079699-12.318797-13.858647-20.018045-26.177444-20.018045H6159.42452v-277.172933H6062.413993c-9.239098 0-16.938346 1.53985-26.177443 6.159399-12.318797 4.619549-23.097744 13.858647-30.796993 24.637594l-1.539849 1.539849c-1.53985 1.53985-3.079699 4.619549-4.619549 7.699249-1.53985 1.53985-1.53985 3.079699-3.079699 6.159398 0 1.53985-1.53985 3.079699-1.53985 4.619549-1.53985 3.079699-3.079699 6.159398-3.079699 9.239098v6.159398c0 3.079699-1.53985 4.619549-1.53985 7.699248V942.38797c0 29.257143 23.097744 52.354887 52.354887 52.354887h599.001504c9.239098 0 16.938346-9.239098 13.858647-18.478195l-13.858647-53.894737zM7380.525272 100.090226h175.542857v258.694736h-169.383459c-10.778947 0-20.018045 9.239098-20.018045 20.018046V431.157895c0 10.778947 9.239098 20.018045 20.018045 20.018045h169.383459v375.723308c0 10.778947 9.239098 20.018045 20.018045 20.018045h146.285714c10.778947 0 20.018045-9.239098 20.018045-20.018045V451.17594H7899.454595c10.778947 0 20.018045-9.239098 20.018045-20.018045v-53.894737c0-10.778947-9.239098-20.018045-20.018045-20.018045h-155.524812V98.550376h235.596992v696.01203c-1.53985 29.257143 21.557895 53.894737 52.354888 53.894737h186.321804c10.778947 0 20.018045-9.239098 20.018045-20.018045v-49.275188c0-10.778947-9.239098-20.018045-20.018045-20.018045h-43.115789V76.992481c0-16.938346-6.159398-32.336842-15.398497-46.195489-12.318797-15.398496-29.257143-24.637594-47.735338-27.717293H7383.604971c-10.778947 0-20.018045 9.239098-20.018045 20.018045v55.434587c-3.079699 12.318797 6.159398 21.557895 16.938346 21.557895z" fill="#00A9F0" p-id="1522"></path><path d="M8238.221512 908.511278h-954.706767V250.995489H7046.377903c-10.778947 0-20.018045 9.239098-20.018045 20.018045v55.434586c0 10.778947 9.239098 20.018045 20.018045 20.018045h49.275188v583.603008c0 13.858647 4.619549 27.717293 10.778947 38.496241 9.239098 13.858647 21.557895 24.637594 38.496241 30.796992l3.079699 1.53985h3.0797c1.53985 0 3.079699 1.53985 4.619548 1.539849h1085.593985c10.778947 0 20.018045-9.239098 20.018046-20.018045v-52.354887c-3.079699-12.318797-12.318797-21.557895-23.097745-21.557895zM1016.326775 32.336842C928.555347 18.478195 748.392941 0 577.469632 0 281.818505 0 107.815497 41.57594 55.46061 95.470677c-72.372932 76.992481-64.673684 260.234586-29.257143 324.90827 38.496241 67.753383 56.974436 93.930827 417.299248 160.144361 16.938346 3.079699 50.815038 10.778947 76.992481 13.858647 3.079699 0 6.159398 1.53985 9.239098 1.53985 140.126316 24.637594 201.720301 40.03609 237.136842 50.815037 23.097744 7.699248 30.796992 24.637594 32.336842 33.876692 9.239098 27.717293 12.318797 84.691729-3.079699 107.789474-4.619549 12.318797-10.778947 24.637594-36.956391 27.717293-30.796992 4.619549-92.390977 20.018045-281.792481 20.018045-175.542857 0-318.748872-15.398496-428.078196-30.796993h-6.159398C20.044069 805.341353 0.026023 823.819549 0.026023 846.917293v86.231579c0 21.557895 16.938346 40.03609 36.956391 43.11579 87.771429 13.858647 267.933835 32.336842 438.857143 32.336842 294.111278 0 469.654135-41.57594 522.009023-95.470677 72.372932-76.992481 64.673684-260.234586 29.257143-324.908271-38.496241-67.753383-56.974436-93.930827-417.299248-160.144361-16.938346-3.079699-61.593985-12.318797-87.771429-16.938345-3.079699 0-6.159398-1.53985-9.239098-1.53985-140.126316-24.637594-190.941353-36.956391-226.357894-47.735338-23.097744-7.699248-30.796992-24.637594-32.336843-33.876692-9.239098-27.717293-12.318797-84.691729 3.0797-107.789474 7.699248-12.318797 13.858647-23.097744 40.03609-27.717293 30.796992-4.619549 52.354887-20.018045 281.792481-20.018045 175.542857 0 318.748872 15.398496 428.078196 30.796992h6.159398c23.097744 0 43.115789-18.478195 43.11579-41.575939V75.452632c-1.53985-21.557895-18.478195-40.03609-40.036091-43.11579zM5289.409482 9.239098h-138.586466c-24.637594 0-43.115789 20.018045-43.11579 43.115789v629.798496L4621.114745 43.115789c-13.858647-18.478195-46.195489-35.416541-70.833082-35.416541H4357.80046c-10.778947 0-16.938346 3.079699-21.557895 7.699248-10.778947 7.699248-18.478195 21.557895-18.478196 35.416542V954.706767c0 24.637594 20.018045 43.115789 43.11579 43.115789h138.586466c24.637594 0 43.115789-20.018045 43.115789-43.115789V311.049624l497.371429 654.43609c13.858647 18.478195 46.195489 35.416541 70.833083 35.416542h177.082706c24.637594 0 43.115789-20.018045 43.11579-43.11579V52.354887c1.53985-24.637594-18.478195-43.115789-41.57594-43.115789z" fill="#00A9F0" p-id="1523"></path><path d="M7188.044069 3.079699h-143.206015l35.416541 126.267669c12.318797 46.195489 32.336842 46.195489 76.992481 46.195489h118.568421v-3.079699l-40.03609-133.966917c-6.159398-20.018045-24.637594-35.416541-47.735338-35.416542z" fill="#F8B500" p-id="1524"></path></svg>