<svg t="1593091732825" class="icon" viewBox="0 0 1024 1024" version="1.1" xmlns="http://www.w3.org/2000/svg" p-id="6558" width="128" height="128"><path d="M797.905 798.663a28.753 28.753 0 0 0 43.127 24.901 28.753 28.753 0 1 0-28.75-49.798 28.752 28.752 0 0 0-14.377 24.897z m0 0M859.949 709.388a28.755 28.755 0 0 0 43.132 24.901 28.742 28.742 0 0 0 14.37-24.901 28.743 28.743 0 0 0-14.37-24.906 28.752 28.752 0 0 0-43.132 24.906z m0 0M896.266 604.22a28.752 28.752 0 0 0 43.132 24.901 28.746 28.746 0 0 0 14.37-24.901 28.746 28.746 0 0 0-43.127-24.908 28.761 28.761 0 0 0-14.375 24.908z m0 0" p-id="6559"></path><path d="M512.669 961.334C265.258 961.334 64 760.075 64 512.669 64 265.259 265.258 64 512.669 64c244.38 0 445.638 198.988 448.664 443.374 0 14.375-11.349 26.481-26.481 26.481-14.375 0-26.481-11.349-26.481-26.481-3.027-215.634-180.068-391.168-395.702-391.168-218.66 0-395.706 177.803-395.706 395.706 0 218.66 177.803 395.702 395.706 395.702 75.662 0 149.052-21.186 211.851-61.285 12.1-7.567 28.746-4.54 36.312 8.322 7.566 12.106 4.54 28.751-8.322 36.317-71.117 46.155-154.344 70.366-239.841 70.366z m0 0" p-id="6560"></path><path d="M724.52 723.763c-6.053 0-12.106-2.269-17.402-6.809L495.267 532.342c-6.053-5.296-9.079-12.106-9.079-19.673V242.561c0-14.376 12.106-26.482 26.481-26.482 14.375 0 26.481 12.106 26.481 26.482v258.003l202.767 177.048c11.349 9.835 12.106 26.481 2.269 37.074-5.295 6.052-12.1 9.077-19.666 9.077z m0 0" p-id="6561"></path></svg>