<svg t="1593153903512" class="icon" viewBox="0 0 1024 1024" version="1.1" xmlns="http://www.w3.org/2000/svg" p-id="7050" width="128" height="128"><path d="M64.366983 565.780881l59.116399 209.072713c65.147766 184.612625 126.010949 185.129394 126.010949 185.129394l63.657832 0L313.152163 380.651486l-63.657832 0C147.252739 380.651486 64.366983 463.536218 64.366983 565.780881z" p-id="7051"></path><path d="M931.10631 561.686632c-6.236028-8.246825-8.429996-19.277042-4.562922-28.865421 20.829398-51.661613-7.182586-101.822037-23.620977-124.920104-5.970992-8.390088-15.581883-13.234419-25.87839-13.234419L656.396691 394.666688c-21.059642 0-36.32123-20.078291-30.683836-40.36943l23.826662-85.774549c59.041698-208.754464-99.854219-208.136388-131.34749-206.039633-3.373841 0.226151-6.719028 0.942465-9.876951 2.15406-86.374206 33.135678-47.992037 94.130867-47.992037 96.429213 32.607652 143.113465-52.794413 196.317201-92.783173 212.991975-11.806907 4.922103-19.345604 16.458857-19.345604 29.253254l0 524.82305c0 17.588587 14.176884 31.847336 31.765471 31.847336 87.085404-0.002047 325.95577-0.008186 368.262318-0.045025 4.330632-0.00307 8.691963-0.881067 12.679787-2.568499 71.617108-30.306236 85.015256-70.726831 85.557608-94.129844 0.277316-11.983939 8.354272-22.358217 19.149129-27.564799 66.73389-32.196283 69.39244-96.65434 68.315922-121.643478-0.280386-6.535857 1.630127-12.96529 5.028527-18.555611C978.329844 630.712729 948.728666 584.996524 931.10631 561.686632z" p-id="7052"></path></svg>