<svg t="1593071905590" class="icon" viewBox="0 0 1024 1024" version="1.1" xmlns="http://www.w3.org/2000/svg" p-id="2840" width="200" height="200"><path d="M46.545455 325.818182h60.50909l72.145455 86.109091H837.818182l69.818182-86.109091h69.818181v465.454545c0 102.4-83.781818 186.181818-186.181818 186.181818H232.727273c-102.4 0-186.181818-83.781818-186.181818-186.181818V325.818182z m309.527272 295.563636V558.545455c0-16.290909-13.963636-30.254545-30.254545-30.254546s-30.254545 13.963636-30.254546 30.254546v93.090909c0 16.290909 13.963636 30.254545 30.254546 30.254545h388.654545c16.290909 0 30.254545-13.963636 30.254546-30.254545v-93.090909c0-16.290909-13.963636-30.254545-30.254546-30.254546s-30.254545 13.963636-30.254545 30.254546v62.836363H356.072727zM139.636364 232.727273h744.727272v62.836363L821.527273 372.363636H202.472727L139.636364 295.563636V232.727273z m0-186.181818h744.727272v62.836363L821.527273 186.181818H202.472727L139.636364 109.381818V46.545455z" p-id="2841"></path></svg>