<svg t="1593108949105" class="icon" viewBox="0 0 1028 1024" version="1.1" xmlns="http://www.w3.org/2000/svg" p-id="4155" width="128" height="128"><path d="M810.341 491.734l-211.407-212.056c-4.787-4.8-11.165-7.434-17.95-7.434-6.837 0-13.265 2.673-18.102 7.511-9.203 9.218-10.107 23.64-2.165 33.759l171.945 172.53-502.568 0c-14.028 0-25.447 11.469-25.447 25.574s11.419 25.562 25.447 25.562l502.555 0-176.107 176.603c-5.296 10.54-3.653 22.71 4.253 30.641 4.735 4.735 11.139 7.332 18.038 7.333 7.587 0 14.83-3.055 20.381-8.605l14.106-14.093 38.712-38.84 7.306-7.178 150.979-151.525c5.002-5.028 7.537-11.916 7.166-19.4l-0.026-0.496 0.026-0.509c0.369-7.498-2.165-14.386-7.142-19.374l0 0zM810.341 491.734z" p-id="4156"></path></svg>