<svg t="1593153781071" class="icon" viewBox="0 0 1024 1024" version="1.1" xmlns="http://www.w3.org/2000/svg" p-id="4997" width="128" height="128"><path d="M190.468157 608.961825h224.097951l-77.947114 375.120484v9.743389c0 19.486778 14.615084 34.101862 29.230168 29.230168 9.743389 0 14.615084-4.871695 19.486778-9.74339l467.682682-604.09013c4.871695-4.871695 4.871695-14.615084 4.871694-24.358473 0-14.615084-14.615084-29.230168-29.230167-29.230167H643.535754l126.66406-302.045065c0-4.871695 4.871695-9.743389 4.871694-14.615084 0-24.358473-14.615084-38.973557-29.230167-38.973557H404.822719c-14.615084 0-24.358473 9.743389-29.230168 19.486778L166.109684 560.244879c0 4.871695-4.871695 9.743389 0 14.615084-4.871695 19.486778 9.743389 34.101862 24.358473 34.101862z m0 0" fill="#050505" p-id="4998"></path></svg>