<svg t="1616922934668" class="icon" viewBox="0 0 1025 1024" version="1.1" xmlns="http://www.w3.org/2000/svg" p-id="10071" width="48" height="48"><path d="M254.73024 81.92c-36.08576 1.59744-73.9328 12.8-108.81024 40.96-17.12128 13.76256 158.3104 101.84704 142.72512 119.68512-148.0704 169.59488-142.6432 318.70976-147.21024 477.42976-0.22528 8.47872-4.4032 14.56128-10.87488 19.21024-9.8304 7.02464-128.63488 57.42592-128.63488 183.02976 0 11.3664 6.79936 20.48 11.50976 20.48 12.16512 0 43.76576-43.35616 65.92512-51.83488 25.92768-9.8304 32.39936-2.8672 55.05024-4.48512 23.26528-1.67936 33.42336-12.55424 40.96-19.18976 4.95616 4.95616 25.66144 17.5104 33.91488 17.26464 27.4432-0.79872 48.14848-3.82976 58.24512-4.46464 24.94464-1.67936 37.2736 17.8176 42.22976 21.11488 12.96384 8.64256 15.52384 8.47872 17.28512-2.56 10.46528-66.00704-39.28064-120.0128-85.11488-150.40512-8.4992-5.59104-6.5536-14.39744 6.38976-39.66976 98.63168-193.04448 262.5536-274.96448 289.91488-282.25536-16.54784 14.336-86.87616 98.24256-78.06976 102.4 147.98848 24.08448 217.02656-82.39104 225.91488-91.50464 13.9264-14.47936 30.39232-21.36064 49.93024-24.96512 31.3344-5.75488 107.27424-8.97024 202.21952-8.31488 18.96448-0.32768 67.9936-2.47808 83.21024-16.01536 10.79296-8.94976-0.47104-19.51744-12.8-26.86976 9.91232-11.6736 19.51744-18.00192 7.04512-34.57024-5.69344-7.51616-23.53152-23.01952-45.44512-39.66976 11.0592-14.00832-28.32384-173.99808-252.17024-188.17024-180.30592-11.42784-242.7904 28.81536-268.77952 32.01024-8.00768 0.96256-16.97792-1.4336-24.9856-3.85024-18.39104-5.67296-90.2144-48.31232-169.5744-44.78976zM819.2 286.72c11.264 0 20.48 9.216 20.48 20.48s-9.216 20.48-20.48 20.48-20.48-9.216-20.48-20.48 9.216-20.48 20.48-20.48z m32.64512 138.24c-53.20704 1.024-92.65152 3.44064-112.00512 7.04512a87.8592 87.8592 0 0 0-17.92 5.12c-12.4928 23.04-23.20384 45.58848-20.48 46.71488 71.76192 7.2704 123.6992-24.8832 150.40512-58.88z" p-id="10072"></path></svg>