<svg t="1595831119615" class="icon" viewBox="0 0 1179 1024" version="1.1" xmlns="http://www.w3.org/2000/svg" p-id="12606" width="200" height="200"><path d="M784.486525 0.045339a35.917904 35.917904 0 0 0-31.207359 18.253361l-134.839343 231.994328a37.09554 37.09554 0 0 1-63.592354 0L420.596945 18.2987A37.09554 37.09554 0 0 0 388.800768 0.045339H252.783789a14.131634 14.131634 0 0 0-12.36518 21.786269l218.451512 376.254761a37.09554 37.09554 0 0 1-63.592354 37.09554L153.273531 18.887518A37.09554 37.09554 0 0 0 119.122082 0.045339H36.687549a36.506722 36.506722 0 0 0-31.796177 54.760082l441.024751 758.98652a14.131634 14.131634 0 0 0 25.319177 0l363.889581-627.091267a36.683367 36.683367 0 0 1 63.592354 36.506722L512.452567 890.338293a36.506722 36.506722 0 0 0 0 36.506722l45.927811 78.901624a37.09554 37.09554 0 0 0 63.592354 0L1174.284102 54.805421a36.506722 36.506722 0 0 0-31.796177-54.760082z" fill="#F5A623" p-id="12607"></path></svg>