<svg t="1615732953980" class="icon" viewBox="0 0 1037 1024" version="1.1" xmlns="http://www.w3.org/2000/svg" p-id="21331" width="48" height="48"><path d="M733.110857 46.811429a43.885714 43.885714 0 0 1 20.845714 58.514285L628.077714 365.714286h102.546286l110.884571-227.693715a43.885714 43.885714 0 1 1 78.701715 38.765715L828.269714 365.714286h151.625143c21.942857 0 40.082286 15.945143 43.52 36.790857l0.585143 7.094857a509.513143 509.513143 0 0 1-311.076571 468.699429l-17.627429 7.094857 5.851429-2.194286c1.755429-0.512 2.194286-0.146286 1.828571 1.609143l-2.194286 9.801143a367.469714 367.469714 0 0 0-5.412571 57.344 43.958857 43.958857 0 0 1-37.083429 42.057143l-6.948571 0.512H372.955429a44.032 44.032 0 0 1-43.739429-38.180572 411.940571 411.940571 0 0 0-11.702857-60.269714l-4.754286-14.116572c-0.585143-1.974857-0.365714-2.706286 1.316572-2.194285l1.828571 0.585143-17.188571-7.460572A509.513143 509.513143 0 0 1 0.219429 429.056L0.073143 409.6c0-21.796571 16.018286-39.936 36.937143-43.300571L44.105143 365.714286h486.546286L674.596571 67.657143A43.885714 43.885714 0 0 1 733.110857 46.811429zM273.993143 560.786286a43.885714 43.885714 0 0 0-83.968 25.453714c9.874286 32.694857 23.405714 60.489143 40.667428 83.163429 16.091429 20.992 35.620571 40.228571 58.660572 57.782857a43.885714 43.885714 0 0 0 53.174857-69.851429 221.110857 221.110857 0 0 1-42.130286-41.252571 173.494857 173.494857 0 0 1-26.331428-55.296z" p-id="21332"></path></svg>