<svg t="1615815765437" class="icon" viewBox="0 0 1433 1024" version="1.1" xmlns="http://www.w3.org/2000/svg" p-id="1526" width="48" height="48"><path d="M524.51328 527.616c8.2944 42.752 20.0192 52.71552 29.55264 50.00192 9.3696-2.68288 9.64608-16.57856-0.53248-30.5152a49.02912 49.02912 0 0 0-29.02016-19.48672z m-114.85184 50.35008s37.7856-7.4752 45.79328-39.24992l9.8304-44.52352h-37.0688l-18.55488 83.77344z m-12.22656-39.24992l9.84064-44.52352h-37.07904l-18.56512 83.77344s37.7856-7.4752 45.80352-39.24992z m182.51776-32.99328H524.0832c1.72032-3.38944 3.39968-7.13728 5.08928-11.53024h-37.888c-13.6192 48.54784-34.84672 71.22944-34.84672 71.22944s28.55936-3.2768 50.57536-31.2832c3.24608-4.12672 8.96-14.37696 11.91936-19.16928h58.96192l2.05824-9.24672z m410.5728-1.78176l-5.07904 22.7328h-90.4192l6.8608-31.1296h80.71168c3.34848 0 5.67296 0.69632 6.92224 2.11968 0.9728 1.0752 1.61792 3.20512 1.00352 6.27712z m21.1968-17.64352H861.05088l-10.94656 49.85856h176.128l5.9904-26.80832c1.69984-7.64928 0.8192-13.27104-2.64192-17.19296-3.4816-3.9424-9.3184-5.85728-17.85856-5.85728z m52.33664-18.54464h-89.18016l4.06528-18.3296h-42.79296l-4.07552 18.3296h-89.04704l-2.05824 9.23648h221.04064l2.048-9.23648zM387.38944 485.2736h42.8032l2.89792-13.03552h80.8448l-2.90816 13.03552h42.83392l2.88768-13.03552h30.64832l2.048-9.2672h-30.63808l3.01056-13.54752h-42.8032l-3.0208 13.54752h-80.8448l2.99008-13.54752h-42.8032l-3.03104 13.54752h-34.54976l-2.02752 9.2672h34.5088l-2.84672 13.03552z m730.8288-26.04032c-26.9312-78.08-112.03584-119.54176-190.11584-92.64128a149.23776 149.23776 0 0 0-80.86528 66.8672c-0.23552 0.44032-0.256 0.768 0.04096 0.89088 0.27648 0.1024 0.6144-0.18432 1.03424-0.63488a148.29568 148.29568 0 0 1 62.6176-41.50272c78.03904-26.96192 163.14368 14.53056 190.06464 92.60032a149.10464 149.10464 0 0 1-7.20896 114.75968c-0.33792 0.69632-0.41984 1.024-0.2048 1.13664 0.3584 0.16384 0.8704-0.4096 1.45408-1.16736 29.7984-38.54336 40.20224-90.84928 23.18336-140.30848zM859.93472 584.00768l5.9904-26.9312h126.40256c3.04128 0 5.15072 0.6656 6.27712 1.95584 1.40288 1.56672 1.2288 4.1984 0.78848 6.10304l-4.16768 18.95424h42.87488l2.82624-12.94336c1.16736-6.9632-0.06144-12.35968-3.66592-16.2816-4.41344-4.70016-11.9808-7.00416-23.1424-7.00416l-189.0304 0.03072-7.94624 36.11648h42.79296z m-162.7648 63.15008c-14.336-0.512-21.31968-7.08608-19.00544-14.8992 2.36544-8.1408 15.06304-10.3424 47.96416 5.04832a43.03872 43.03872 0 0 1-28.95872 9.85088z m-53.59616-85.7088l10.32192-46.44864h112.37376l-10.31168 46.45888H643.57376z m21.9136-98.7136h100.93568c3.86048 0 6.59456 0.84992 8.0896 2.51904 1.1264 1.25952 1.98656 3.91168 1.04448 7.8848l-7.23968 32.58368H655.9744l9.5232-42.98752zM507.8528 602.33728l-8.93952 40.1408h-14.7456l10.35264-46.47936h7.80288c1.62816 0 3.80928 0.22528 4.9152 1.4848 1.10592 1.21856 0.96256 3.1744 0.6144 4.85376z m-62.64832 40.1408h-14.97088l10.3424-46.47936h14.99136l-10.36288 46.46912z m-53.94432 0h-13.7728l10.27072-46.47936h13.824l-10.32192 46.46912z m594.3808-6.6048c-13.45536-14.4384-2.57024-38.6048 0.6656-56.15616 0.6656-8.16128-5.85728-8.94976-10.58816-9.00096H874.2912c-6.69696 34.93888-12.51328 72.74496-61.72672 75.9296-24.2688 1.60768-44.62592-1.7408-59.55584-7.04512 31.30368-19.16928 39.1168-49.60256 39.936-52.3264 1.72032-6.0928 24.35072-109.04576 24.35072-109.04576 1.9456-8.32512-0.1536-14.08-3.14368-17.46944-4.46464-5.03808-12.3904-7.4752-24.28928-7.4752H624.7424l-29.36832 132.4032s-5.76512 28.18048-15.91296 40.57088c-14.71488 17.85856-39.63904 16.1792-40.37632 16.1792 0 0 6.47168-29.15328 8.02816-36.37248 1.06496-4.78208-0.512-10.48576-3.1744-13.37344-3.72736-4.00384-10.28096-5.9392-20.00896-5.9392h-174.2848l-12.288 55.71584h-28.11904L307.2 651.6736h244.61312s69.44768-0.8192 86.7328-67.4816l3.00032-13.4656h112.3328l-3.01056 13.73184c-1.10592 3.46112-5.86752 30.1568-20.09088 46.94016-10.31168-4.97664-38.144-21.49376-58.37824-16.65024-18.82112 4.53632-20.0704 24.25856-2.68288 33.51552 28.69248 15.23712 56.5248 2.8672 66.1504-0.62464 2.9696-1.0752 5.4272-1.95584 8.12032-3.1744 34.38592 14.7456 67.91168 13.55776 83.57888 10.8544 16.896-2.8672 71.70048-10.51648 87.7056-75.48928h28.18048l-6.7584 31.54944c-4.52608 20.8896 9.1136 31.6928 12.25728 34.02752 36.61824 27.51488 107.24352 9.33888 138.19904-33.81248 1.1264-1.51552 1.49504-2.47808 1.19808-2.64192-0.4096-0.21504-1.39264 0.8192-2.56 2.23232-22.5792 25.40544-77.7728 48.68096-100.1472 24.69888z" fill="#FFFFFF" p-id="1527"></path></svg>