<svg t="1593617798018" class="icon" viewBox="0 0 1024 1024" version="1.1" xmlns="http://www.w3.org/2000/svg" p-id="4072" width="128" height="128"><path d="M228.094727 56.888889C133.540353 56.888889 56.888889 132.928345 56.888889 228.094727L56.888889 795.905274C56.888889 890.459648 132.928345 967.111111 228.094727 967.111111L795.905274 967.111111C890.459648 967.111111 967.111111 891.071653 967.111111 795.905274L967.111111 228.094727C967.111111 133.540353 891.071653 56.888889 795.905274 56.888889L228.094727 56.888889ZM249.96633 527.028128 249.96633 443.043771C448.000393 443.043771 608.538721 603.582099 608.538721 801.616162L524.554363 801.616162C511.437554 656.059546 395.522944 540.144937 249.96633 527.028128L249.96633 527.028128ZM249.96633 305.84471 249.96633 222.383838C569.867509 222.383838 829.198655 481.714983 829.198655 801.616162L745.737779 801.616162C731.868171 534.137609 517.444882 319.714322 249.96633 305.84471L249.96633 305.84471ZM291.340067 856.781147C238.023204 856.781147 194.801347 813.559285 194.801347 760.242426 194.801347 706.925562 238.023204 663.703706 291.340067 663.703706 344.656931 663.703706 387.878788 706.925562 387.878788 760.242426 387.878788 813.559285 344.656931 856.781147 291.340067 856.781147Z" p-id="4073"></path></svg>