<svg t="1615718678329" class="icon" viewBox="0 0 1024 1024" version="1.1" xmlns="http://www.w3.org/2000/svg" p-id="13640" width="48" height="48"><path d="M258.25 78.67c1.53 0.77 3.11 1.51 4.46 2.6 7.78 6.41 15.97 12.38 24.86 17.18 20.1 12.97 42.58 21.71 65.42 28.54 17.9 4.8 36.22 8.06 54.73 9.26 5.02 0.41 10.07 0.55 15.12 0.45l0.92-0.01c4.84 0.07 9.7 0 14.53-0.43 12.59-1.48 25.06-4.04 37.73-5.1 9.04 0.03 18.09-2.61 27.09-0.33 24.47 0.4 48.73 5.85 71.61 14.41 23.98 9.61 46.87 22.53 66.01 40.03 4.49 4.87 10.3 8.33 14.48 13.52 4.37 5.93 10.3 10.49 14.22 16.78 14.45 17.73 25.32 38.14 33.56 59.42 5.72 16.43 10.72 33.39 11.66 50.84-8.68 1.7-17.47 2.52-26.22 3.66-11.2-31.47-31.27-59.72-57.47-80.46-28.09-22.3-63.09-35.81-98.91-37.98-44.93-3.22-90.78 11.75-125.25 40.73-30.63 25.15-52.23 60.98-60.25 99.77-8.25 37.68-3.46 77.98 13.03 112.82 12.5 26.37 31.46 49.75 55.04 66.98 29.82 22.5 67.09 34.67 104.38 34.98 12.46-0.3 24.97 0.05 37.37-1.43 15.36-1.16 30.43-4.82 44.98-9.77 8.6-2.89 17.12-6.09 25.16-10.31 5.57-1.72 10.02-5.58 15.13-8.21 13.86-7.59 26.21-17.56 38.12-27.85 5.88-6.13 12.34-11.72 17.5-18.5 11.15-12.65 20.16-26.95 28.42-41.59 8.52-16.27 14.74-33.64 19.63-51.31 1.53-7.16 3.71-14.18 4.49-21.48 0.53-5.66 2.27-11.17 2.18-16.88-0.12-4.04 1.14-7.95 1.08-11.98-0.08-9.77-0.13-19.54-0.02-29.31 0.15-1.87-0.17-3.73-0.57-5.54-1.38-11.39-2.99-22.79-5.66-33.96-3.29-15.56-8.84-30.51-14.87-45.19-5.46-11.29-10.83-22.7-17.84-33.13-4.42-6.52-8.78-13.08-13.46-19.41 4.16-0.14 7.33 3.21 10.8 5.06 16.6 9.65 32.09 21.03 47.23 32.79 9.98 8.32 19.4 17.26 29.1 25.92 3.67 3.34 6.35 7.61 10.06 10.93 6.64 6.08 11.97 13.36 17.84 20.15 9.2 11.61 17.9 23.62 25.94 36.07 8.07 11.39 14.23 23.95 20.75 36.26 23.92 47.2 37.65 99.44 40.86 152.22 0.43 3.02 0.93 6.05 0.83 9.12-0.14 11.01 0.03 22.02-0.06 33.03-0.48 4.32-1.35 8.61-1.04 13-1.04 14.44-3.3 28.79-5.85 43.06-2.14 12.84-5.92 25.32-9.12 37.92-3.77 12.22-7.99 24.3-12.82 36.14-3.88 9.83-8.07 19.57-13.27 28.78-4.74 6.51-8.35 13.72-12.21 20.75-2.44 4.44-5.73 8.32-8.37 12.64-7.94 13.36-17.79 25.45-27.23 37.77-6.25 8.35-13.81 15.61-20.23 23.82-5.03 5.93-12.11 9.84-16.51 16.35-5.32 8.02-13.96 12.75-20.76 19.31-18.66 14.83-38.52 28.23-59.57 39.43-8.02 3.97-15.97 8.06-24.02 11.97-42.27 18.82-87.78 30.71-133.96 33.95-5.07-0.33-9.97 1.32-15.02 1.14-10.01-0.1-20.02-0.07-30.03-0.01-4.37 0.05-8.61-1.32-12.99-1.11-18.82-1.06-37.46-4.24-55.92-8.01-8.87-1.81-17.48-4.67-26.29-6.74-42.16-12.69-82.44-31.97-118.06-57.91-4.05-2.98-8.42-5.51-12.3-8.7-8.43-7.23-17.42-13.83-25.2-21.79-10-8.29-18.87-17.84-27.45-27.56-9.23-10.85-18.64-21.58-26.6-33.42-4.24-6.4-9.22-12.34-12.93-19.1-15.34-24.89-28.48-51.24-37.99-78.93-5.81-16.02-9.88-32.61-13.81-49.18-1.48-9.47-3.99-18.78-4.76-28.37-1.2-7.69-2.06-15.44-2.63-23.2 0.48-5.74-1.41-11.31-1.1-17.03 0.19-11-0.13-22 0.13-32.99 0.74-4.3 1.08-8.63 1.07-12.99 2.7-28.8 8.11-57.42 16.84-85.02 7.32-24.44 17.96-47.72 29.71-70.31 16.03-28.58 34.84-55.75 57.45-79.53 2.44-3.26 5.73-5.89 7.83-9.35-0.21-5.97-1.79-11.83-1.96-17.82-1.93-13.25-0.63-26.67-1.07-40.01 1.52-18.96 4.17-37.96 9.8-56.19 5.29-18.88 13.22-36.88 22.5-54.12z" fill="#EF5549" p-id="13641"></path><path d="M407.72 136.25c5.07-0.36 10.15-0.25 15.23-0.26l-0.11 0.71c-5.05 0.1-10.1-0.04-15.12-0.45zM423.76 136.69c4.67-1.53 9.71-0.45 14.53-0.43-4.83 0.43-9.69 0.5-14.53 0.43zM700.29 179.29c0.54 0.54 0.54 0.54 0 0zM406.8 251.78c34.47-28.98 80.32-43.95 125.25-40.73 35.82 2.17 70.82 15.68 98.91 37.98 26.2 20.74 46.27 48.99 57.47 80.46-5.05 0.85-9.8 2.81-14.68 4.26-13.81 3.68-26.94 9.62-39.36 16.63-7.28 2.86-12.77 8.55-19.1 12.92-6.64 4.94-12.63 10.69-18.75 16.23-8.65 10.09-17.92 19.88-24.37 31.6-5 8.18-9.5 16.69-13.32 25.47-2.79 8.56-6.75 16.79-8.1 25.76-1.76 11.51-5.07 22.9-4.53 34.64 0.34 9.63-0.78 19.36 1.01 28.89 1.93 13.24 5.38 26.2 9.14 39.01-12.4 1.48-24.91 1.13-37.37 1.43-37.29-0.31-74.56-12.48-104.38-34.98-23.58-17.23-42.54-40.61-55.04-66.98-16.49-34.84-21.28-75.14-13.03-112.82 8.02-38.79 29.62-74.62 60.25-99.77m100.51 45.44c-5.35 0.81-10.46 2.99-14.74 6.3-13.12 9.7-16.65 29.82-7.49 43.35 8.06 13.07 26.05 18.65 40.06 12.32 14.91-5.94 23.57-24.13 18.3-39.39-4.17-15.17-20.65-25.5-36.13-22.58zM752.47 312.17c0.4 1.81 0.72 3.67 0.57 5.54-2.11-0.23-1.83-4.29-0.57-5.54z" fill="#FFFFFF" p-id="13642"></path><path d="M507.31 297.22c15.48-2.92 31.96 7.41 36.13 22.58 5.27 15.26-3.39 33.45-18.3 39.39-14.01 6.33-32 0.75-40.06-12.32-9.16-13.53-5.63-33.65 7.49-43.35 4.28-3.31 9.39-5.49 14.74-6.3z" fill="" p-id="13643"></path><path d="M688.43 329.49c8.75-1.14 17.54-1.96 26.22-3.66 0.25 4.8 0.45 9.61 1.16 14.37 2.12 13.39 0.75 26.97-0.29 40.39-2.47 15.59-6.81 30.86-12.21 45.68-2.24 8.03-5.2 15.84-8.69 23.4-6.31 10.95-11.27 22.79-19.3 32.68-2.41 2.85-4.61 5.91-7.31 8.49-3.15-3.21-5.23-7.29-8.19-10.67-9.61-11.59-21.76-22.33-37.03-25.14-10.03-1.59-20.22-4.44-30.4-2.52-4.05 1.11-8.25 1.24-12.38 1.77-3.33 0.21-6.43 3.23-6.03 6.67 0.07 7.5-0.55 15.14 1.41 22.47 2.78 12.38 7.05 24.93 15.76 34.46 5.97 6.37 11.05 13.71 18.37 18.66 5.01 3.95 11 6.26 16.99 8.28-8.04 4.22-16.56 7.42-25.16 10.31-14.55 4.95-29.62 8.61-44.98 9.77-3.76-12.81-7.21-25.77-9.14-39.01-1.79-9.53-0.67-19.26-1.01-28.89-0.54-11.74 2.77-23.13 4.53-34.64 1.35-8.97 5.31-17.2 8.1-25.76 3.82-8.78 8.32-17.29 13.32-25.47 6.45-11.72 15.72-21.51 24.37-31.6 6.12-5.54 12.11-11.29 18.75-16.23 6.33-4.37 11.82-10.06 19.1-12.92 12.42-7.01 25.55-12.95 39.36-16.63 4.88-1.45 9.63-3.41 14.68-4.26z" fill="#FFB522" p-id="13644"></path></svg>