<svg t="1593091840707" class="icon" viewBox="0 0 1024 1024" version="1.1" xmlns="http://www.w3.org/2000/svg" p-id="8761" width="128" height="128"><path d="M959.667 800.651l-33.844-157.556c-0.064-0.224 0-0.39-0.03-0.588l-2.61-10.637c-1.435-5.905-5.157-10.539-9.92-13.249-4.767-2.805-10.638-3.687-16.416-1.956l-10.538 3.068c-0.165 0.03-0.329 0.163-0.558 0.26l-156.64 49.733c-11.62 3.363-18.665 15.634-15.83 27.413l2.646 8.879c2.839 11.743 17.358 15.37 28.977 12.006l100.167-32.189a356.734 356.734 0 0 1-7.227 13.326c-50.845 89.318-137.647 153.181-238.126 175.21-94.868 20.79-225.597 3.427-307.41-48.982-81.78-52.345-137.517-136.411-158.309-231.275-3.552-16.153-19.51-26.401-35.668-22.844-16.153 3.527-26.4 19.515-22.81 35.67 24.18 110.532 89.253 207.876 184.51 268.9 95.258 60.993 242.042 81.256 352.541 57.046 116.956-25.684 218.023-100.09 277.322-204.126 0.653-1.154 1.289-2.321 1.932-3.48l18.072 85.814c2.87 11.782 14.619 18.569 26.237 15.14l8.385-0.876c11.654-3.43 17.983-12.989 15.147-24.707zM96.962 395.962l2.61 10.655c1.44 5.908 5.157 10.526 9.924 13.253 4.764 2.787 10.638 3.67 16.413 1.957l10.507-3.086c0.2-0.03 0.359-0.177 0.558-0.242l156.64-49.75c11.62-3.394 18.699-15.635 15.86-27.414l-2.872-7.979c-2.87-11.747-17.134-16.3-28.717-12.907l-100.582 32.302a361.304 361.304 0 0 1 17.173-34.112c50.905-89.366 136.896-150.278 237.31-172.304 94.863-20.79 225.595-3.41 307.374 48.998 81.815 52.361 138.3 133.49 159.121 228.386 3.558 16.154 19.48 26.35 35.669 22.81 11.294-2.482 19.71-11.048 22.485-21.504a29.56 29.56 0 0 0 0.323-14.164c-24.213-110.511-90.03-204.974-185.288-265.962-95.291-61.011-242.046-81.262-352.543-57.03-116.892 25.619-217.21 97.05-276.471 201.086a425.167 425.167 0 0 0-11.908 22.417l-17.691-84.01c-2.905-11.767-13.9-21.263-25.52-17.87l-8.385 0.917c-11.619 3.43-18.698 15.696-15.86 27.412l33.806 157.553c0.099 0.213-0.002 0.394 0.064 0.588z m0 0" p-id="8762"></path></svg>