<svg xmlns="http://www.w3.org/2000/svg" style="margin:auto;background:#f1f2f3;display:block;" width="441" height="132" preserveAspectRatio="xMidYMid">
<style type="text/css">
  text {
    text-anchor: middle; font-size: 80px; opacity: 0;
  }
  @keyframes spin-6b93f5d1-5a1c-4069-b5ef-62e0a8ce2e5c
  {
    0% {
      animation-timing-function: cubic-bezier(0.5856,0.0703,0.4143,0.9297);
      transform: rotate(0deg);
    }
    100% {
      transform: rotate(360deg);
    }
  }
</style>
<g style="transform-origin:220.5px 66px;transform:scale(1)">
<g transform="translate(220.5,66)">
  <g transform="translate(0,0)"><g class="path" style="transform: rotate(0deg); transform-origin: -108.245px -7.5272px; animation: 1s linear -0.586667s infinite normal forwards running spin-6b93f5d1-5a1c-4069-b5ef-62e0a8ce2e5c;"><path d="M47.85-8.01L47.85 0L5.74 0L5.74-43.98L13.75-43.98L13.75-8.01L47.85-8.01" fill="#353535" stroke="none" stroke-width="none" transform="translate(-135.04003310203552,14.462801367441816)" style="fill: rgb(53, 53, 53);"></path></g><g class="path" style="transform: rotate(0deg); transform-origin: -57.46px -7.6072px; animation: 1s linear -0.513333s infinite normal forwards running spin-6b93f5d1-5a1c-4069-b5ef-62e0a8ce2e5c;"><path d="M100.55-8.09L100.55 0L54.61 0L54.61-44.14L100.55-44.14L100.55-36.09L62.70-36.09L62.70-8.09L100.55-8.09" fill="#353535" stroke="none" stroke-width="none" transform="translate(-135.04003310203552,14.462801367441816)" style="fill: rgb(102, 102, 102);"></path></g><g class="path" style="transform: rotate(0deg); transform-origin: -54.085px -7.8222px; animation: 1s linear -0.44s infinite normal forwards running spin-6b93f5d1-5a1c-4069-b5ef-62e0a8ce2e5c;"><path d="M95.43-26.33L95.43-18.24L66.48-18.24L66.48-26.33L95.43-26.33" fill="#353535" stroke="none" stroke-width="none" transform="translate(-135.04003310203552,14.462801367441816)" style="fill: rgb(155, 155, 155);"></path></g><g class="path" style="transform: rotate(0deg); transform-origin: -2.66003px -7.6072px; animation: 1s linear -0.366667s infinite normal forwards running spin-6b93f5d1-5a1c-4069-b5ef-62e0a8ce2e5c;"><path d="M155.35-8.09L155.35 0L109.41 0L109.41-44.14L155.35-44.14L155.35-36.09L117.50-36.09L117.50-8.09L155.35-8.09" fill="#353535" stroke="none" stroke-width="none" transform="translate(-135.04003310203552,14.462801367441816)" style="fill: rgb(212, 212, 212);"></path></g><g class="path" style="transform: rotate(0deg); transform-origin: 0.719959px -7.8222px; animation: 1s linear -0.293333s infinite normal forwards running spin-6b93f5d1-5a1c-4069-b5ef-62e0a8ce2e5c;"><path d="M150.23-26.33L150.23-18.24L121.29-18.24L121.29-26.33L150.23-26.33" fill="#353535" stroke="none" stroke-width="none" transform="translate(-135.04003310203552,14.462801367441816)" style="fill: rgb(255, 255, 255);"></path></g><g class="path" style="transform: rotate(0deg); transform-origin: 50.235px -7.5272px; animation: 1s linear -0.22s infinite normal forwards running spin-6b93f5d1-5a1c-4069-b5ef-62e0a8ce2e5c;"><path d="M206.33-8.01L206.33 0L164.22 0L164.22-43.98L172.23-43.98L172.23-8.01L206.33-8.01" fill="#353535" stroke="none" stroke-width="none" transform="translate(-135.04003310203552,14.462801367441816)" style="fill: rgb(53, 53, 53);"></path></g><g class="path" style="transform: rotate(0deg); transform-origin: 101.015px -7.6072px; animation: 1s linear -0.146667s infinite normal forwards running spin-6b93f5d1-5a1c-4069-b5ef-62e0a8ce2e5c;"><path d="M259.02-8.09L259.02 0L213.09 0L213.09-44.14L259.02-44.14L259.02-36.09L221.17-36.09L221.17-8.09L259.02-8.09" fill="#353535" stroke="none" stroke-width="none" transform="translate(-135.04003310203552,14.462801367441816)" style="fill: rgb(102, 102, 102);"></path></g><g class="path" style="transform: rotate(0deg); transform-origin: 104.395px -7.8222px; animation: 1s linear -0.0733333s infinite normal forwards running spin-6b93f5d1-5a1c-4069-b5ef-62e0a8ce2e5c;"><path d="M253.91-26.33L253.91-18.24L224.96-18.24L224.96-26.33L253.91-26.33" fill="#353535" stroke="none" stroke-width="none" transform="translate(-135.04003310203552,14.462801367441816)" style="fill: rgb(155, 155, 155);"></path></g><g class="path" style="transform: rotate(0deg); transform-origin: 136.815px -7.5272px; animation: 1s linear 0s infinite normal forwards running spin-6b93f5d1-5a1c-4069-b5ef-62e0a8ce2e5c;"><path d="M275.82-43.98L275.82 0L267.89 0L267.89-43.98L275.82-43.98" fill="#353535" stroke="none" stroke-width="none" transform="translate(-135.04003310203552,14.462801367441816)" style="fill: rgb(212, 212, 212);"></path></g></g>
</g>
</g>
</svg>